<svg id="Layer_1" data-name="Layer 1" xmlns="http://www.w3.org/2000/svg" viewBox="0 0 680.32 283.46"><title>Brooklands Interiors- LOGO</title><path d="M761.1,156.63V440.09H80.79V156.63H761.1" transform="translate(-80.79 -156.63)" style="fill:#808285;fill-rule:evenodd"/><polyline points="632.48 137.42 632.48 146.63 340.16 146.63 47.83 146.63 47.83 137.42 340.16 137.42" style="fill:#bcbec0;fill-rule:evenodd"/><path d="M718.23,263.65a12.14,12.14,0,0,1-4.84,10,19.06,19.06,0,0,1-12.17,3.82,26.25,26.25,0,0,1-14.88-4.4l3.59-6.53a18.88,18.88,0,0,0,10.93,3.67,10.72,10.72,0,0,0,5.35-1.25,4.78,4.78,0,0,0,2.64-4.32q0-3.68-5.35-6.82-9.75-5.64-10-5.86a13.17,13.17,0,0,1-5.35-10.71,11.94,11.94,0,0,1,4.11-9.31q4.32-4,11.65-4a24.75,24.75,0,0,1,11.88,2.72l-.15,7.91q-6.15-3.36-11.29-3.37a9,9,0,0,0-5,1.28,4.09,4.09,0,0,0-2,3.63q0,3.6,5.42,6.75c6.41,3.71,9.75,5.69,10,5.94a13.26,13.26,0,0,1,5.42,10.77m-63.92-11.29q0-7.47-4.33-11.8-4.61-4.62-13.19-4.62h-5.57V269.3h5.64q8.88,0,13.49-5.06Q654.31,259.77,654.31,252.36Zm9.46-.14q0,11-7.26,17.66-7.41,6.9-20.09,6.89H622.35v-48.3H637q12.9,0,20,6.52Q663.77,241.29,663.77,252.22Zm-68.69,24.55h-8.2L565,248.49q-2.88-3.7-4.79-6.68l-.1.07a63.44,63.44,0,0,1,.22,6.45v28.44h-8.87v-48.3h9l21,27.19a66.08,66.08,0,0,1,4.76,6.75V228.47h8.8Zm-83.57-19.35-3.86-11.07a53.91,53.91,0,0,1-1.81-6h-.07a45.13,45.13,0,0,1-1.75,5.89l-4.25,11.19Zm17,19.35h-9.46l-4.76-12.09H497.05l-4.45,12.09h-8.72l18.76-48.52h6.45Zm-59.08,0H443.27v-48.3h8.87V269.3h17.3Zm-48.94,0H409.62l-17.3-21.11v21.11h-8.87v-48.3h8.87v20.59l16.49-20.59h10.35L399.83,251.9Zm-71.5-24q0-7.91-4.15-12.64a14,14,0,0,0-11.1-4.73,14.22,14.22,0,0,0-11.11,4.69q-4.22,4.69-4.21,12.68t4.21,12.76a15.41,15.41,0,0,0,22.14,0Q349,260.87,349,252.8Zm9.45-.14q0,11.07-6.93,18t-17.7,6.89q-10.49,0-17.08-5.94-7.62-6.88-7.62-18.47,0-10.86,6.93-18T333.82,228q11.73,0,18.55,7.48Q358.45,242.18,358.45,252.66Zm-81.51.14q0-7.91-4.14-12.64a14.06,14.06,0,0,0-11.11-4.73,14.22,14.22,0,0,0-11.11,4.69q-4.22,4.69-4.21,12.68t4.21,12.76a15.41,15.41,0,0,0,22.14,0Q276.93,260.87,276.94,252.8Zm9.45-.14q0,11.07-6.92,18t-17.71,6.89q-10.47,0-17.08-5.94-7.62-6.88-7.62-18.47,0-10.86,6.93-18T261.76,228q11.73,0,18.55,7.48Q286.4,242.18,286.39,252.66ZM202,243.13a6.92,6.92,0,0,0-2.06-5.17,8.24,8.24,0,0,0-6-2h-4.39v15H194a7.8,7.8,0,0,0,5.68-2.27A7.52,7.52,0,0,0,202,243.13Zm14.44,33.64H206.27q-7.4-12.31-8.43-14c-2-3.13-3.42-4.81-4.25-5.06h-4.1v19.06h-8.87v-48.3h13q8.88,0,13.27,4a12.31,12.31,0,0,1,4,9.6,12.65,12.65,0,0,1-2.78,8.06,15.06,15.06,0,0,1-6.16,4.62v.08q1.45.79,5.28,6.81Q209.14,264.61,216.39,276.77ZM147,262.26a5.49,5.49,0,0,0-2.23-4.58,10.05,10.05,0,0,0-6.27-1.73h-6V269.3h5.64Q147.05,269.3,147,262.26Zm-2.93-20.09q0-6.22-7.26-6.23h-4.32v12.61h5.28a6.15,6.15,0,0,0,4.39-1.83A6,6,0,0,0,144.11,242.17Zm12,20.09a13.2,13.2,0,0,1-4,9.82q-4.69,4.69-13.12,4.69H123.66v-48.3h15.39q6.6,0,10.48,3.81a11,11,0,0,1,3.45,8.21q0,7.11-6,10v.07a11.84,11.84,0,0,1,9.16,11.66Z" transform="translate(-80.79 -156.63)" style="fill:#bcbec0;fill-rule:evenodd"/><path d="M717.83,264.77l0,.37,0,.35,0,.36-.06.35-.07.34-.08.34-.08.34-.1.33-.1.32-.12.32-.12.32-.14.31-.14.3-.15.31-.16.29-.17.3-.18.28-.19.29-.19.28-.21.27-.22.27-.22.27-.23.26-.25.26-.25.25-.26.25-.28.24-.28.24-.29.24-.3.23-.3.22-.31.21-.31.21-.32.2-.32.19-.33.19-.33.18-.33.17-.34.16-.35.16-.35.15-.36.14-.36.14-.36.12-.37.12-.38.12-.38.1-.39.1-.39.09-.39.09-.4.07-.41.07-.41.07-.41.05-.42,0-.43,0-.43,0-.43,0-.44,0h-1.41l-.5,0-.51,0-.5,0-.49,0-.5-.05-.49-.06-.48-.06-.49-.07-.48-.08-.47-.09-.48-.1-.47-.1-.46-.12-.47-.12-.46-.13-.45-.14-.46-.15-.45-.16-.45-.16-.44-.18-.44-.18-.44-.19-.43-.2-.43-.21-.43-.21-.43-.23-.42-.23-.42-.24-.41-.25-.41-.26-.14-.09,3.25-5.89h0l.33.23.34.21.34.21.34.2.33.19.34.18.35.18.34.17.34.17.34.15.35.15.34.15.35.13.34.13.35.12.35.11.35.11.35.1.35.09.35.08.35.08.36.07.35.06.35.06.36,0,.36,0,.35,0,.36,0,.36,0H702l.19,0,.19,0,.19,0,.18,0,.18,0,.19,0,.17,0,.18,0,.18,0,.17,0,.17,0,.17,0,.17-.05.17,0,.16-.05.17-.05.16-.06.16-.06.15-.06.16-.07.15-.06.15-.07.15-.08.15-.07.15-.08.15-.08.33-.21.32-.22.29-.22.28-.25.25-.25.23-.26.21-.28.19-.28.17-.3.14-.31.12-.32.11-.33.07-.33.06-.35,0-.36v-.61l0-.24,0-.24,0-.25-.05-.24-.06-.23-.07-.24-.09-.24-.09-.23-.11-.23-.11-.24-.13-.23-.14-.22-.14-.23-.16-.22-.17-.23-.18-.22-.19-.22-.2-.22-.21-.21-.22-.22-.24-.21-.24-.21-.25-.22-.26-.21-.27-.2-.29-.21-.29-.21-.3-.2-.32-.2-.32-.2-.33-.21-.61-.34-.58-.34-.56-.33-.55-.31-.52-.31-.51-.29-.49-.29-.47-.27-.45-.26-.44-.25-.41-.25-.4-.23-.38-.22-.36-.21-.34-.2-.32-.18-.31-.18-.55-.33-.25-.14-.23-.14-.21-.12-.19-.12-.18-.1-.15-.09-.14-.08-.12-.08-.1-.06-.08-.05-.06,0,0,0h0l-.32-.25-.31-.27-.3-.27-.29-.28-.29-.27-.27-.29-.26-.28-.25-.29-.24-.3-.22-.3-.22-.3-.21-.31-.2-.31-.19-.31-.18-.32-.16-.32-.16-.33-.15-.33-.13-.34-.13-.34-.12-.34L689,245l-.1-.35-.09-.36-.07-.36-.07-.36-.06-.37,0-.38,0-.37,0-.39,0-.38v-1.08l0-.33,0-.33,0-.33.05-.32,0-.32.06-.32.06-.31.08-.3.08-.31.09-.3.09-.29.11-.29.11-.29.12-.28.13-.28.14-.28.14-.27.15-.27.16-.27.17-.26.17-.25.19-.26.19-.25.2-.25.2-.24.22-.24.22-.24.23-.23.24-.23.24-.22.27-.24.27-.23.28-.22.29-.22.28-.21.3-.2.3-.19.31-.18.31-.18.32-.17.32-.16.33-.16.34-.14.34-.14.34-.13.36-.13.36-.12.36-.11.37-.1.38-.09.38-.09.39-.08.4-.07.4-.07.4-.05.42,0,.42-.05.42,0,.43,0,.44,0h2.14l.41,0,.41,0,.4,0,.4,0,.39,0,.4,0,.38,0,.39.06.38.06.38.06.37.07.37.08.37.08.36.09.37.09.35.09.36.1.35.11.34.11.35.12.34.12.33.13.33.13.33.14.33.15.32.14.32.16.32.16.12.06-.13,7.12-.26-.14-.38-.19-.39-.19-.38-.19-.37-.17-.38-.17-.37-.17-.38-.15-.37-.15-.36-.15-.37-.13-.37-.13-.36-.13-.36-.11-.36-.11-.36-.11-.35-.09-.35-.09-.36-.09-.35-.08-.34-.07-.35-.06-.34-.06-.35,0-.34,0-.33,0-.34,0-.34,0-.33,0h-1.78l-.18,0-.18,0-.17,0-.18,0-.17,0-.17,0-.17,0-.17,0-.16,0-.16,0-.17,0-.15,0-.16.05-.16,0-.15.05-.15.06-.15.06-.15.06-.14.06-.15.07-.14.07-.14.07-.14.08-.13.07-.13.08-.14.09-.25.17-.24.19-.23.19-.2.21-.2.21-.17.23-.16.23-.15.24-.12.26-.11.26-.1.27-.07.28-.06.28,0,.29,0,.31v.54l0,.25,0,.23,0,.24,0,.24.06.23.07.24.09.23.09.23.11.23.12.23.13.23.14.22.15.23.16.22.17.22.18.22.19.22.21.21.21.22.22.21.24.21.24.21.26.21.26.21.28.21.29.2.29.21.31.2.32.2.33.2.33.2.6.35.57.33.56.32.53.32.52.3.5.29.49.28.46.27.45.27.43.25.41.24.4.23.37.22.36.21.34.2.33.19.3.18.29.17.52.31.23.14.21.13.2.12.18.11.16.1.14.09.13.07.1.07.09.06.07,0,0,0,0,0,.32.27.32.27.31.28.29.28.29.28.27.28.26.29.26.3.24.3.23.3.22.3.22.31.2.32.19.32.18.32.17.32.16.33.15.33.14.34.12.34.12.35.11.35.1.35.09.36.07.36.07.37.06.37,0,.37,0,.38,0,.38v1.53m-63.2-12v-.93l0-.46,0-.45,0-.45,0-.44-.06-.44-.06-.43-.07-.42-.09-.41-.09-.42-.1-.4-.1-.4-.12-.39-.13-.39-.13-.38-.14-.37-.15-.37-.16-.36-.17-.36-.18-.35-.19-.34-.19-.34-.2-.33-.22-.32-.22-.32-.23-.31-.24-.31-.24-.3-.26-.29-.26-.29-.28-.28-.3-.29-.3-.28-.32-.28-.32-.26-.33-.25-.34-.25-.35-.23-.36-.23-.36-.22-.37-.21-.38-.19-.38-.19-.4-.18-.4-.17-.41-.17-.42-.15-.42-.14-.43-.13-.44-.13-.45-.11-.46-.11-.46-.09-.47-.09-.48-.08-.48-.07-.49-.06-.5-.05-.51,0-.52,0-.52,0-.53,0h-6.47v34.06h6.56l.55,0,.54,0,.53,0,.52,0,.52-.06.51-.06.5-.08.49-.09.48-.09.48-.11.47-.11.46-.13.45-.13.44-.15.43-.16.43-.16.42-.18.41-.19.4-.19.39-.21.39-.22.37-.23.37-.23.36-.25.35-.26L649,266l.33-.28.33-.29.31-.29.31-.31.3-.32.25-.3.25-.29.23-.3.23-.31.21-.31.21-.32.21-.32.19-.33.19-.34.17-.34.17-.35.17-.35.15-.36.15-.37.14-.37.13-.37.12-.39.11-.38.11-.4.1-.4.09-.4.08-.41.08-.41.06-.43.06-.42,0-.44.05-.43,0-.45,0-.45,0-.45v-.93Zm8.75-.14v.67l0,.67,0,.66-.05.65-.06.64-.08.63-.09.62-.11.62-.12.61-.13.6-.14.59-.17.58-.17.57-.19.56-.2.56-.22.55-.23.54-.24.53-.26.52-.27.51-.29.51-.3.49-.31.49-.33.48-.34.48-.35.46-.37.46-.39.44-.39.44-.42.43-.42.43-.44.41-.46.42-.47.4-.49.4-.49.37-.5.37-.51.35-.52.34-.53.32-.55.31-.55.3-.56.29-.57.27-.59.26-.59.24-.61.24-.61.22-.62.2-.64.19-.65.18-.65.17-.67.15-.67.14-.69.13-.7.11-.71.1-.72.09-.73.07-.73.06-.75.05-.76,0-.78,0H622.7v-47.6h15.1l.79,0,.77,0,.76,0,.75.06.74.07.72.08.72.09.7.11.69.12.68.13.67.15.66.16.65.17.63.18.62.19.61.21.61.22.58.23.58.25.57.26.55.27.55.28.53.29.52.31.51.32.5.33.48.35.48.35.47.37.45.39.44.39.41.39.39.4.38.41.37.42.36.43.34.43.33.45.32.45.3.46.29.47.28.48.27.49.25.5.24.51.23.51.21.53.2.53.19.54.17.56.17.56.14.57.14.58.12.59.11.59.1.61.09.62.07.62.06.64,0,.64,0,.65v1.34Zm-68.69,24.2h-7.66l-21.78-28.15-.18-.23-.18-.23-.17-.22-.17-.23-.17-.22-.17-.23-.17-.22-.17-.22-.16-.22-.16-.22-.16-.21-.16-.22-.15-.21-.16-.21-.15-.21-.15-.21-.15-.21-.14-.2-.15-.21-.14-.2-.14-.2-.14-.2-.14-.2-.13-.2-.14-.2-.13-.19-.13-.19-.12-.19-.13-.19-.12-.19-.12-.19-.33-.5-.56.42,0,.32,0,.12v.71l0,.15v33.4h-8.16v-47.6h8.49l20.93,27.06.2.26.2.26.2.26.19.25.19.25.19.25.18.24.18.24.17.23.17.24.17.23.17.22.16.22.15.22.16.22.15.21.14.21.15.2.14.2.13.2.13.19.13.19.13.19.12.18.12.18.11.18.11.17.11.17.1.17.1.16.1.16.75,1.26V228.82h8.08ZM512,257.77l-4-11.53-.09-.25-.08-.24-.08-.24-.08-.23-.08-.23-.08-.23-.07-.22-.07-.22-.07-.21-.07-.21-.07-.21-.06-.21-.06-.2-.07-.19,0-.19-.06-.19-.06-.19-.05-.18-.05-.18-.05-.17-.05-.17,0-.16,0-.17,0-.15,0-.16,0-.15,0-.15,0-.14,0-.14,0-.13,0-.13-.09-.41h-.65l-.09.42,0,.14,0,.14,0,.14,0,.15,0,.15,0,.16,0,.16,0,.16,0,.16-.05.17,0,.17-.05.17-.05.17-.05.18-.06.18,0,.19-.06.18-.06.19-.06.2-.06.19-.06.2-.07.2-.07.21-.06.21-.07.21-.08.21-.07.22-.08.22-.07.22-.08.22-.08.23-4.43,11.66Zm16,18.65H519.3l-4.76-12.1H496.8l-4.45,12.1h-8l18.5-47.82h6Zm-58.91,0H443.62v-47.6h8.16v40.83h17.3Zm-49.33,0h-10L392,254.67v21.75H383.8v-47.6H392v21.25l17-21.25h9.43l-19,23.08Zm-70.4-23.62v-.5l0-.49,0-.48,0-.48,0-.47-.05-.47-.05-.46-.06-.46-.07-.45-.08-.44-.09-.44-.09-.43-.1-.42-.12-.42-.12-.41-.12-.41-.14-.4-.14-.39-.16-.39-.16-.38-.17-.37-.17-.37-.19-.37-.2-.35-.2-.35-.21-.35-.22-.33-.23-.33-.23-.33-.25-.32-.25-.31-.26-.31-.27-.29-.27-.29-.28-.28-.29-.27-.29-.26-.29-.25-.31-.24-.3-.24-.32-.22-.32-.21-.32-.21-.33-.19-.34-.19-.34-.17-.35-.17-.35-.15-.36-.15-.37-.14-.37-.13-.37-.12-.38-.1-.39-.1-.39-.09-.4-.08-.4-.07-.41-.07-.41-.05-.42,0-.43,0-.43,0h-1.74l-.42,0-.42,0-.42,0-.41.05-.4.06-.41.07-.39.08-.39.09-.38.1-.38.11-.38.12-.37.12-.36.14-.36.15-.35.15-.35.17-.35.17L326,237l-.34.2-.32.2-.32.21-.32.22-.31.23-.3.24-.3.25-.3.26-.29.27-.28.27-.28.29-.27.29-.27.31-.25.31-.25.31-.24.33-.23.33-.23.33-.21.35-.21.35-.2.35-.19.37-.18.36-.17.38-.16.38-.16.39-.15.39-.13.4-.13.41-.13.42-.11.42-.1.42-.1.44-.09.43-.08.45-.07.45-.06.46-.06.46,0,.47,0,.48,0,.48,0,.49v2l0,.49,0,.49,0,.48,0,.47.06.47.06.46.07.46.08.45.09.44.1.44.1.43.11.42.13.41.12.41.14.41.15.39.16.39.16.39.17.37.18.38.19.36.2.36.21.35.21.34.23.34.23.33.24.32.25.32.25.31.27.3.27.3.28.29.28.27.29.27.3.26.3.25.3.24.31.23.32.22.32.21.32.2.34.2.33.18.35.17.35.17.35.15.36.15.36.13.37.13.38.12.38.11.38.1.39.08.39.08.4.08.41.06.41.05.42,0,.42,0,.42,0h1.73l.42,0,.41,0,.42,0,.4-.05.4-.07.4-.07.39-.08.39-.08.38-.1.38-.11.37-.12.37-.13.36-.13.35-.15.36-.15.34-.17.34-.17.34-.18.33-.2.32-.2.32-.21.32-.22.31-.23.3-.24.3-.25.29-.26.29-.27.29-.27.27-.29.27-.3.27-.3.26-.31.25-.32.24-.32.23-.33.22-.34.22-.34.2-.35.2-.36.19-.36.18-.38.17-.37.17-.39.15-.39.15-.39.14-.41.13-.41.12-.41.11-.42.11-.43.1-.44.08-.44.08-.45.07-.46.07-.46.05-.47.05-.47,0-.48,0-.49,0-.49,0-.5Zm8.75-.14v.68l0,.67,0,.66-.05.66-.06.65-.07.64-.09.63-.1.62-.11.61-.13.61-.14.6-.15.59-.17.58-.18.57-.19.57-.21.55-.22.55-.23.54-.25.53-.26.53-.27.51-.29.51-.3.5-.31.5-.33.48-.34.48-.35.46-.37.46-.38.46-.39.44-.4.44-.43.42-.43.42-.43.41-.45.39-.45.38-.46.36-.47.35-.47.34-.48.32-.49.32-.5.29-.5.29-.51.27-.52.26-.53.24-.53.23-.54.22-.55.21-.56.19-.56.18-.57.17-.58.15-.59.14-.59.12-.6.12-.61.1-.62.08-.62.08-.63.05-.64,0-.65,0-.65,0h-1.31l-.64,0-.63,0-.62,0-.62-.05-.6-.06-.6-.08-.59-.09-.58-.09-.58-.11-.57-.12-.56-.13-.55-.15-.55-.15-.53-.17-.53-.17-.53-.19-.51-.2-.51-.21-.5-.23-.49-.23-.48-.24-.48-.26-.47-.27-.46-.28-.45-.29-.45-.3-.44-.32-.43-.32-.42-.34-.42-.35-.41-.36-.46-.42-.45-.44-.43-.45-.42-.45-.4-.47-.39-.47-.38-.48-.35-.5-.35-.5-.33-.5-.31-.52-.3-.53-.29-.54-.27-.54-.26-.56-.24-.56-.23-.57-.21-.58-.2-.6-.18-.6-.17-.61-.15-.61-.14-.63-.13-.64-.11-.65-.09-.65-.08-.67-.07-.67,0-.69,0-.69,0-.7v-1.38l0-.66,0-.65.05-.65.06-.64.07-.63.09-.62.1-.61.11-.61.13-.6.14-.6.15-.58.17-.58.18-.57.19-.56.21-.56.22-.55.23-.54.25-.54.26-.52.27-.52.29-.52.3-.5.31-.5.33-.49.34-.49.35-.48.37-.47.38-.46.39-.46.41-.44.42-.45.43-.43.44-.42.44-.4.46-.39.46-.37L319,233l.48-.35.48-.33.49-.32.5-.31.51-.29.51-.28.52-.27.53-.25.53-.24.54-.23.56-.21.55-.2.57-.18.57-.17.59-.16.58-.14.6-.14.61-.11.61-.1.62-.09.63-.08.63-.06.65-.05.65,0,.66,0h1.38l.71,0,.71,0,.69.05.68.07.67.08.66.09.66.11.64.12.63.14.63.15.61.17.61.18.59.19.59.21.57.22.57.24.55.25.55.27.54.28.52.29.52.31.51.33.5.33.49.35.48.37.47.38.46.4.46.41.44.42.43.44.43.45.36.42.36.42.35.43.33.43.32.45.31.45.3.45.29.47.27.47.26.48.25.49.24.49.23.5.22.51.2.52.2.52.18.54.17.54.16.54.14.56.14.56.12.57.11.57.1.59.09.59.08.6.06.61.05.61,0,.62,0,.63,0,.64Zm-80.81.14v-1l0-.48,0-.48,0-.47-.05-.47-.05-.46L277,249l-.07-.45-.08-.44-.08-.44-.1-.43-.1-.42-.11-.42-.12-.41-.13-.41-.14-.4-.14-.39-.15-.39-.17-.38-.16-.37-.18-.37-.19-.37-.19-.35-.21-.35-.21-.35-.22-.33-.22-.33-.24-.33-.24-.32-.26-.31-.26-.31-.27-.29-.27-.29-.28-.28-.28-.27-.29-.26-.3-.25-.3-.24-.31-.24-.32-.22-.32-.21-.32-.21-.33-.19-.34-.19-.34-.17-.35-.17-.35-.15-.36-.15-.37-.14-.37-.13-.37-.12-.38-.1-.39-.1-.39-.09-.4-.08-.4-.07-.41-.07-.41-.05-.42,0-.43,0-.43,0h-1.74l-.42,0-.42,0-.42,0-.41.05-.4.06-.4.07-.4.08-.39.09-.38.1-.38.11-.38.12-.37.12-.36.14-.36.15-.35.15-.35.17-.34.17L254,237l-.33.2-.33.2-.32.21-.32.22-.31.23-.3.24-.3.25-.3.26-.29.27-.28.27-.28.29-.27.29-.26.31-.26.31-.25.31-.24.33-.23.33-.23.33-.21.35-.21.35-.19.35-.19.37-.18.36-.18.38-.16.38-.16.39-.14.39-.14.4-.13.41-.12.42-.12.42-.1.42-.1.44-.09.43-.08.45-.07.45-.06.46-.05.46,0,.47,0,.48,0,.48,0,.49v2l0,.49,0,.49,0,.48,0,.47.05.47.06.46.07.46.08.45.09.44.1.44.1.43.12.42.12.41.13.41.14.41.14.39.16.39.16.39.17.37.19.38.19.36.19.36.21.35.21.34.23.34.23.33.24.32.25.32.26.31.26.3.27.3.28.29.28.27.29.27.3.26.3.25.3.24.31.23.32.22.32.21.33.2.33.2.34.18.34.17.35.17.35.15.36.15.36.13.37.13.38.12.38.11.38.1.39.08.4.08.4.08.4.06.41.05.42,0,.42,0,.42,0h1.73l.42,0,.42,0,.41,0,.4-.05.41-.07.39-.07.39-.08.39-.08.38-.1.38-.11.37-.12.37-.13.36-.13.36-.15.35-.15.34-.17.34-.17.34-.18.33-.2.33-.2.32-.21.31-.22.31-.23.3-.24.3-.25.3-.26.28-.27.29-.27.27-.29.28-.3.26-.3.26-.31.25-.32.24-.32.23-.33.22-.34.22-.34.2-.35.2-.36.19-.36.18-.38.18-.37.16-.39.15-.39.15-.39.14-.41.13-.41.12-.41.12-.42.1-.43.1-.44.08-.44.08-.45.08-.46.06-.46.05-.47.05-.47,0-.48,0-.49,0-.49v-1Zm8.75-.14v.68l0,.67,0,.66-.05.66-.06.65-.07.64-.09.63-.1.62-.11.61-.13.61-.14.6-.15.59-.17.58-.18.57-.19.57-.21.55-.22.55-.23.54-.25.53-.26.53-.27.51-.29.51-.3.5-.31.5-.33.48-.33.48-.36.46-.36.46-.38.46-.4.44-.4.44-.42.42-.43.42-.44.41-.45.39-.45.38-.46.36-.47.35-.47.34-.48.32-.49.32-.5.29-.5.29-.51.27-.52.26-.53.24-.53.23-.54.22-.55.21-.56.19-.56.18-.57.17-.58.15-.59.14-.59.12-.6.12-.61.1-.62.08L265,277l-.63.05-.64,0-.65,0-.65,0h-1.31l-.64,0-.63,0-.62,0-.61-.05L258,277l-.6-.08-.59-.09-.58-.09-.58-.11-.57-.12-.56-.13-.55-.15-.54-.15-.54-.17-.53-.17-.52-.19-.52-.2-.5-.21-.5-.23-.5-.23-.48-.24-.48-.26-.46-.27-.47-.28-.45-.29L247,273l-.44-.32-.43-.32-.42-.34-.42-.35-.41-.36-.46-.42-.45-.44-.43-.45-.42-.45-.4-.47-.39-.47-.37-.48-.36-.5-.35-.5-.33-.5-.31-.52-.3-.53-.29-.54-.27-.54-.25-.56-.25-.56-.22-.57-.22-.58-.19-.6-.19-.6-.17-.61-.15-.61-.14-.63-.12-.64-.11-.65-.1-.65-.08-.67-.07-.67-.05-.69,0-.69,0-.7v-1.38l0-.66,0-.65.05-.65.06-.64.08-.63.08-.62.1-.61.12-.61.12-.6.14-.6.16-.58.16-.58.18-.57.2-.56.2-.56.22-.55.24-.54.24-.54.26-.52.27-.52.29-.52.3-.5.31-.5.33-.49.34-.49.35-.48.37-.47.38-.46.39-.46.41-.44.42-.45.43-.43.44-.42.45-.4.45-.39.46-.37.47-.37.47-.35.48-.33.49-.32.5-.31.51-.29.51-.28.52-.27.53-.25.53-.24.55-.23.55-.21.56-.2.56-.18.58-.17.58-.16.59-.14.59-.14.61-.11.61-.1.62-.09.63-.08.63-.06.65-.05.65,0,.66,0h1.39l.71,0,.7,0,.69.05.68.07.67.08.67.09.65.11.64.12.64.14.62.15.61.17.61.18.59.19.59.21.57.22.57.24.55.25.55.27.54.28.53.29.51.31.51.33.5.33.49.35.48.37.47.38.46.4.46.41.44.42.43.44.43.45.37.42.35.42.35.43.33.43.32.45.31.45.3.45.29.47.27.47.27.48.25.49.24.49.22.5.22.51.21.52.19.52.18.54.17.54.16.54.14.56.14.56.12.57.11.57.1.59.09.59.08.6.06.61.06.61,0,.62,0,.63v1.29Zm-83.74-9.53v-.8l0-.2,0-.19,0-.19,0-.19,0-.19,0-.18,0-.18-.05-.18-.05-.18-.06-.18-.06-.17-.07-.17-.07-.17-.07-.17-.08-.16-.08-.16-.09-.16-.09-.16-.09-.16-.1-.15-.11-.15-.1-.15-.12-.14-.11-.15-.12-.14-.13-.13-.12-.14-.14-.13-.13-.14-.15-.12-.14-.13-.15-.11-.15-.12-.16-.11-.16-.11-.17-.1-.17-.09-.17-.1-.18-.09-.18-.08-.18-.08-.19-.08-.19-.07-.19-.07-.2-.06-.2-.06-.21-.06-.2-.05-.22,0-.21,0-.22,0-.23,0-.22,0-.23,0-.24,0-.23,0h-5.74v15.73h5.26l.21,0h.22l.2,0,.21,0,.21,0,.2,0,.2,0,.2,0,.2-.05.19,0,.2-.06.19-.06.19-.07.19-.07.18-.08.18-.08.18-.08.18-.09.18-.1.17-.1.17-.1.17-.11.17-.12.17-.11.16-.13.16-.13.16-.13.15-.13.16-.15.15-.14.14-.15.15-.15.14-.15.13-.16.13-.16.13-.16.12-.16.11-.16.11-.17.11-.17.1-.17.1-.17.09-.18.09-.17.08-.18.08-.19.07-.18.07-.19.06-.18.06-.19.06-.19,0-.2,0-.19,0-.2,0-.2,0-.2,0-.21,0-.2,0-.21v-.63Zm.62,27.37-.35-.57-.33-.55-.32-.53-.31-.51-.29-.49-.28-.47-.27-.45-.26-.42-.25-.41-.23-.39-.22-.36-.2-.35-.2-.32-.18-.3-.17-.28-.16-.26-.15-.25-.13-.21-.12-.2-.11-.18-.09-.16-.08-.14-.08-.12-.19-.29-.18-.28-.18-.28-.18-.26-.17-.26-.17-.25-.17-.24-.16-.23-.16-.22-.16-.22-.15-.2-.15-.2-.15-.19-.14-.19-.14-.17-.14-.17-.14-.15-.13-.15-.13-.15-.12-.13-.12-.12-.12-.12-.12-.11-.12-.1-.11-.09-.11-.09-.11-.08-.1-.07-.11-.06-.11-.05-.1,0-.15-.05h-4.52v19.06H181v-47.6h13.24l.54,0,.52,0,.52,0,.51,0,.5,0,.49,0,.48.06.48.07.46.07.46.08.44.09.44.1.43.1.42.11.41.12.41.13.39.14.38.14.38.15.37.16.35.16.35.17.34.18.34.19.32.2.31.2.31.21.29.22.29.23.28.23.27.24.24.22.23.23.22.23.22.23.2.24.2.24.19.25.18.25.18.26.17.26.16.26.15.27.15.28.14.28.13.28.12.29.12.29.11.3.1.3.09.31.09.31.08.32.07.32.06.33.06.33.05.34,0,.34,0,.35,0,.35,0,.35v1.28l0,.27,0,.27,0,.27,0,.27,0,.26,0,.26-.05.26,0,.26-.05.25-.07.26-.06.25-.07.25-.08.25-.08.24-.09.25-.09.24-.1.24-.1.24-.11.23-.11.24-.12.23-.13.23-.13.23-.13.22-.14.23-.15.22-.15.22-.15.22-.17.22-.16.22-.15.18-.15.18-.15.17-.15.18-.15.17-.16.17-.16.16-.17.17-.16.16-.17.15-.18.16-.17.15-.18.15-.18.15-.18.14-.19.15-.19.14-.19.13-.2.14-.19.13-.2.13-.21.13-.2.12-.21.12-.22.12-.21.11-.22.12-.22.11-.22.11-.23.1-.23.1-.45.2v.51l.26.15.09.06.09.06.09.08.11.09.11.1.11.11.12.12.13.13.13.15.14.15.14.16.14.18.15.18.16.19.16.21.16.22.18.22.17.24.18.24.18.26.19.27.2.28.19.28.21.3.2.31.22.32.21.33.22.33.23.35.23.36.24.37.12.2.14.21.14.22.16.25.16.26.18.28.18.3.2.32.21.34.22.35.23.38.24.39.24.4.27.43.27.45.28.46.29.48.3.5.31.51.33.54.33.55.34.57.36.59.36.61.38.62.38.65.4.66.4.68.42.7.43.71.44.73.13.22h-9.3l-.35-.59-.44-.74-.44-.72-.42-.69-.4-.68-.4-.65-.38-.64-.37-.61Zm-55.52-8.24v-.55l0-.18,0-.18,0-.18,0-.17,0-.17,0-.17,0-.17,0-.17-.06-.16L147,260l-.07-.16-.07-.16-.07-.15-.07-.15-.09-.15-.08-.15-.09-.14-.1-.15-.1-.14-.1-.13-.11-.14-.12-.13-.11-.13-.13-.13-.12-.12-.14-.12-.13-.12-.14-.12-.15-.11-.15-.12-.15-.1-.16-.11-.16-.1-.16-.1-.17-.09-.17-.09-.17-.09-.18-.08-.18-.08-.18-.07-.19-.08-.19-.06-.19-.07-.2-.06-.2-.06L142,256l-.21-.05-.21-.05-.21,0-.22,0-.22,0-.23,0-.22,0-.24,0-.23,0-.24,0h-7.61v14h6.56l.54,0,.52,0,.5,0,.49-.06.47-.08.46-.09.43-.11.43-.12.4-.14.39-.15.37-.16.36-.18.33-.2.32-.21.31-.23.28-.24.27-.25.25-.27.23-.29.21-.3.19-.31.18-.33.16-.34.13-.36.12-.37.1-.38.08-.4.07-.41,0-.42,0-.43Zm-2.94-20.09v-.39l0-.39,0-.37-.05-.36-.07-.36-.08-.34-.1-.32-.11-.32-.13-.31-.14-.29-.16-.28-.18-.27-.19-.25-.21-.24-.22-.23-.23-.22-.25-.2-.27-.19-.28-.17-.29-.17-.31-.14-.32-.14-.34-.12-.34-.11-.37-.09-.37-.09-.39-.07-.4-.05-.42-.05-.43,0-.44,0h-5.14v13.32h6l.32,0,.32,0,.31-.06.31-.06.31-.09.29-.1.3-.11.29-.13.28-.14.28-.16.27-.18.27-.18.26-.21.26-.21.25-.24.12-.12.12-.12.12-.13.11-.12.11-.13.1-.13.1-.14.1-.13.09-.14.09-.14.09-.14.08-.14.07-.14.08-.15.07-.15.06-.15.06-.15.06-.15,0-.16.05-.15,0-.16,0-.16,0-.16,0-.17,0-.16,0-.17,0-.17v-.17l0-.17v-.53Zm11.32,20.09V263l0,.35,0,.34,0,.35,0,.33,0,.34-.06.33-.06.32-.08.33-.08.31-.08.32-.1.31-.1.31-.11.3-.12.3-.13.3-.13.29-.14.29-.15.29-.16.28-.17.28-.17.27-.18.27-.19.27-.19.27-.2.26-.22.25-.21.26-.23.25-.23.25-.25.24-.29.28-.3.28-.3.26-.31.25-.32.25-.32.24-.34.22-.34.22L149,274l-.36.21-.36.19-.37.18-.37.18-.39.16-.39.16-.4.15-.4.14-.41.13-.42.12-.43.11-.43.1-.45.1-.45.08-.45.08-.47.07-.47.06-.48.05-.49,0-.49,0-.5,0H124v-47.6h15.84l.4,0,.38,0,.38,0,.38,0,.37.05.37.05.36.07.35.06.35.08.34.08.34.1.33.09.33.11.32.11.32.12.31.13.3.13.3.14.3.15.29.16.29.16.27.17.28.18.27.18.26.19.26.2.26.21.24.21.25.22.24.23.2.21.2.21.2.21.18.21.18.22.18.22.16.22.16.23.15.22.15.23.14.24.13.23.13.24.12.24.11.25.11.24.1.25.1.25.09.26.08.26.07.26.07.26.06.27.06.27.05.27,0,.27,0,.28,0,.28,0,.29v1.3l0,.42,0,.41,0,.41-.05.4-.06.38-.07.39-.09.37-.1.36-.1.35-.12.35-.13.34-.14.33-.16.32-.16.32-.18.3-.18.3-.2.29-.21.28-.22.28-.23.26-.24.26-.26.25-.27.25-.27.23-.29.23-.3.22-.32.22-.32.2-.34.2-.35.19-.56.28v.57l.52.13.24.06.24.07.24.07.23.08.23.08.22.09.23.09.22.09.22.1.21.11.21.1.21.11.21.12.2.12.2.12.2.13.2.14.19.13.19.14.19.15.18.15.19.15.17.16.18.17.17.16.18.18.16.17.17.18.16.19.16.19.16.19.15.2.15.2.15.2.13.2.14.21.13.2.12.21.12.21.11.21.11.22.11.21.1.22.09.22.09.22.09.22.08.23.07.23.07.23.07.23.06.23,0,.24.05.23.05.24,0,.24,0,.25,0,.24,0,.25,0,.25,0,.25v.77Z" transform="translate(-80.79 -156.63)" style="fill:#fff;fill-rule:evenodd"/><path d="M654.49,354.85a12.15,12.15,0,0,1-4.84,10,19,19,0,0,1-12.16,3.81,26.26,26.26,0,0,1-14.89-4.4l3.6-6.52a18.93,18.93,0,0,0,10.92,3.66,10.72,10.72,0,0,0,5.35-1.24,4.79,4.79,0,0,0,2.64-4.33q0-3.66-5.35-6.82-9.75-5.64-10-5.86a13.12,13.12,0,0,1-5.36-10.7,11.91,11.91,0,0,1,4.11-9.31q4.32-4,11.65-4A24.75,24.75,0,0,1,652,321.93l-.15,7.92a23.8,23.8,0,0,0-11.29-3.37,9,9,0,0,0-5,1.28,4.07,4.07,0,0,0-2,3.63q0,3.58,5.43,6.74c6.4,3.72,9.74,5.69,10,5.94a13.27,13.27,0,0,1,5.42,10.78m-66.85-20.53a7,7,0,0,0-2-5.17,8.28,8.28,0,0,0-6-2h-4.39v15h4.47a7.76,7.76,0,0,0,5.68-2.27A7.5,7.5,0,0,0,587.64,334.32ZM602.08,368H592q-7.4-12.32-8.43-14-3-4.7-4.25-5.06h-4.1V368h-8.87V319.66h13.05q8.86,0,13.26,4a12.34,12.34,0,0,1,4,9.6,12.69,12.69,0,0,1-2.78,8.07,15.13,15.13,0,0,1-6.16,4.61v.08q1.47.81,5.28,6.82Q594.83,355.79,602.08,368Zm-70.23-24q0-7.92-4.14-12.65a14,14,0,0,0-11.1-4.73,14.21,14.21,0,0,0-11.11,4.7Q501.29,336,501.29,344t4.21,12.75a15.41,15.41,0,0,0,22.14,0Q531.86,352.06,531.85,344Zm9.46-.15q0,11.07-6.93,18t-17.7,6.89q-10.48,0-17.08-5.94Q492,355.88,492,344.29q0-10.85,6.92-18t17.78-7.11q11.73,0,18.55,7.48Q541.3,333.36,541.31,343.85ZM467,368h-8.87V319.66H467Zm-46.26-33.65a6.94,6.94,0,0,0-2.05-5.17,8.25,8.25,0,0,0-6-2h-4.4v15h4.47a7.78,7.78,0,0,0,5.69-2.27A7.49,7.49,0,0,0,420.72,334.32ZM435.17,368H425.05l-8.43-14q-3-4.7-4.25-5.06h-4.11V368h-8.87V319.66h13.05q8.87,0,13.27,4a12.34,12.34,0,0,1,4,9.6,12.64,12.64,0,0,1-2.79,8.07,15,15,0,0,1-6.16,4.61v.08q1.47.81,5.28,6.82Q427.91,355.79,435.17,368ZM374,368h-26.9V319.66H374l-2.42,7.4H356V339.6h15.61V347H356v13.56h18Zm-49.41-48.31-2.12,7.4H309.3V368h-8.94V327.06h-14v-7.4ZM267.15,368H259l-21.88-28.29c-1.92-2.46-3.52-4.7-4.79-6.68l-.09.07c.14,1.27.22,3.42.22,6.45V368h-8.87V319.66h9l21,27.2a69.48,69.48,0,0,1,4.77,6.74V319.66h8.79Zm-70.88,0H187.4V319.66h8.87Z" transform="translate(-80.79 -156.63)" style="fill:#bcbec0;fill-rule:evenodd"/><path d="M654,357l-.06.35-.07.35-.07.33-.09.34-.1.33-.1.32-.12.32-.12.32-.13.31-.15.31-.15.3-.16.3-.17.29-.18.29-.18.28-.2.28-.21.28-.21.27-.23.26-.23.26-.25.26-.25.25-.26.25-.27.25-.29.23-.29.24-.29.23-.31.22-.3.22-.32.2-.31.2-.33.2-.32.18-.34.18-.33.17-.34.17-.35.15-.35.15-.36.15-.36.13-.36.13-.37.12-.38.11-.38.11-.38.1-.39.09-.4.08-.4.08-.41.07-.4.06-.42.06-.42,0-.43,0-.42,0-.44,0-.44,0h-1.91l-.51,0-.5,0-.49,0-.5-.05-.49-.05-.48-.07L633,368l-.48-.08-.47-.09-.48-.1-.47-.1-.46-.12-.47-.12-.46-.13-.45-.14-.46-.15-.45-.15-.44-.17-.45-.17-.44-.19-.44-.19-.43-.2-.43-.2-.43-.22-.42-.22-.43-.24-.41-.24-.42-.25-.41-.26-.14-.09,3.25-5.89h0l.33.22.34.21.34.21.34.2.34.19.34.19.34.18.34.17.34.16.34.16.35.15.34.14.35.13.35.13.34.12.35.12.35.1.35.1.35.09.35.09.35.07.36.07.35.06.36.06.35.05.36,0,.35,0,.36,0,.36,0h1.7l.19,0h.19l.19,0,.19,0,.18,0,.19,0,.18,0,.18,0,.17,0,.18,0,.17,0,.17-.05.17,0,.17-.05.17,0,.16-.05.17-.05.16-.06.16-.06.15-.06.16-.06.15-.07.16-.07.15-.07.14-.08.15-.08.15-.08.33-.2.32-.22.29-.23.28-.24.25-.25.23-.27.21-.27.19-.29.17-.3.14-.31.13-.31.1-.33.07-.34.06-.35,0-.35v-.61l0-.25,0-.24,0-.24,0-.24-.06-.24-.07-.24-.08-.23-.1-.24-.1-.23-.12-.23-.13-.23-.13-.23-.15-.23-.16-.22-.17-.22-.18-.22-.19-.22-.2-.22-.21-.22-.22-.21-.23-.22-.25-.21-.25-.21-.26-.21-.27-.21-.28-.21-.3-.2-.3-.21-.31-.2-.33-.2-.33-.2-.6-.35-.59-.34-.56-.32-.54-.32-.53-.3-.51-.3-.49-.28-.47-.28-.45-.26-.43-.25-.42-.24-.4-.23-.38-.22-.36-.21-.34-.2-.32-.19-.3-.18-.56-.32-.25-.15-.23-.13-.21-.13-.19-.11-.18-.11-.15-.09-.14-.08-.12-.07-.1-.06-.08,0-.06,0,0,0h0l-.32-.26-.31-.27-.3-.27-.29-.27-.28-.28-.27-.28-.26-.29-.25-.29-.24-.29-.23-.3-.22-.31-.21-.3-.2-.31-.19-.32-.17-.32-.17-.32-.16-.33-.15-.33-.13-.33-.13-.34-.12-.35-.1-.34-.1-.36-.09-.35-.07-.36-.07-.37,0-.37-.05-.37,0-.38,0-.38,0-.39v-1.07l0-.34,0-.33,0-.33,0-.32,0-.32.06-.31.06-.31.08-.31.08-.3.09-.3.1-.3.1-.29.11-.29.12-.28.13-.28.14-.28.14-.27.15-.27.16-.26.17-.26.17-.26.19-.26.19-.25.2-.24.2-.25.22-.24.22-.23.23-.23.24-.23.25-.23.26-.24.28-.23.27-.22.29-.21.29-.21.29-.2.3-.19.31-.19.31-.18.32-.17.32-.16.33-.15.34-.15.34-.14.35-.13.35-.13.36-.11.36-.11.37-.1.38-.1.38-.09.39-.08.4-.07.4-.06.41-.06.41-.05.42,0,.42,0,.43,0,.44,0H641l.41,0,.41,0,.41,0,.4,0,.4,0,.4,0,.39.05.39,0,.38.05.38.06.38.07.37.07.37.07.37.08.37.09.36.09.35.1.36.1.35.11.34.11.35.11.34.13.33.12.34.14.33.14.32.14.32.15.32.15.32.16.12.06-.13,7.12-.26-.13-.38-.2-.38-.19-.38-.18-.38-.18-.38-.17-.37-.16-.37-.16-.37-.15-.37-.14-.37-.14-.36-.13-.37-.12-.36-.12-.36-.11-.35-.1-.36-.1-.35-.09-.35-.08-.35-.08-.35-.07-.35-.07-.34-.05-.34,0-.34-.05-.34,0-.34,0-.33,0h-1.94l-.18,0-.18,0h-.18l-.17,0-.18,0-.17,0-.17,0-.17,0-.17,0-.16,0-.16,0-.16.05-.16,0-.16,0-.16.05-.15.06-.15.05-.15.06-.15.06-.14.07-.15.06-.14.07-.14.08-.13.07-.14.08-.13.08-.14.08-.25.18-.24.18-.22.2-.21.2-.2.22-.17.22-.16.23-.15.25-.12.25-.11.26-.1.27-.07.28-.06.29,0,.29,0,.3v.55l0,.24,0,.24,0,.24,0,.23.06.24.07.23.09.24.09.23.11.23.12.22.13.23.14.23.15.22.16.22.17.22.18.22.19.22.21.22.21.21.23.21.23.22.24.21.26.21.27.2.27.21.29.21.3.2.3.2.32.21.33.2.34.2.59.34.57.33,1.09.64.52.3.51.29.48.29.47.27.44.26.43.25.41.24.4.23.38.23.35.21.34.2.33.19.3.18.29.17.27.16.25.15.23.14.21.13.2.12.18.1.16.1.14.09.13.08.1.07.09.05.07.05,0,0,0,0,.32.26.32.28.31.27.29.28.29.28.27.29.27.29.25.29.24.3.23.3.23.31.21.31.2.31.19.32.18.32.17.33.16.32.15.34.14.34.13.34.11.34.11.35.1.35.09.36.07.36.07.37.06.37,0,.37,0,.38,0,.39v1.53l0,.37,0,.36,0,.36m-66-22.37v-.8l0-.2,0-.19,0-.19,0-.19,0-.18,0-.19,0-.18,0-.18-.05-.18-.06-.17-.06-.18-.07-.17-.07-.17-.07-.16-.08-.17-.08-.16-.09-.16-.09-.16-.09-.15-.1-.16-.11-.15-.1-.14-.12-.15-.11-.14-.12-.14-.13-.14L586,329l-.14-.13-.13-.13-.15-.13-.14-.12-.15-.12-.16-.12-.15-.11-.16-.1-.17-.1-.17-.1-.17-.09-.18-.09-.17-.09-.19-.08-.19-.08-.19-.07-.19-.07-.2-.06-.2-.06-.21-.05-.2-.06-.22,0-.21,0-.22,0-.22,0-.23,0-.23,0-.23,0-.24,0h-5.74v15.74h5.47l.22,0,.2,0,.21,0,.21,0,.2,0,.2,0,.2,0,.2-.05.2-.06.19-.05.19-.07.19-.06.19-.08.18-.07.18-.08.18-.09.18-.09.18-.1.17-.09.17-.11.17-.11.17-.11.17-.12.16-.12.16-.13.16-.13.15-.14.16-.14.15-.15.15-.15.14-.15.14-.15.13-.15.13-.16.13-.16.12-.16.11-.17.11-.17.11-.16.1-.17.1-.18.09-.17.09-.18.08-.18.08-.18.07-.19.07-.18.06-.19.06-.19.06-.19,0-.2,0-.19,0-.2,0-.2,0-.2,0-.2,0-.21,0-.21v-.63Zm2.94,31.25-.41-.7-.41-.67-.4-.66-.38-.64-.37-.61-.35-.59-.35-.58-.33-.55-.32-.53-.31-.51L587,359l-.28-.47-.27-.44-.26-.43-.24-.41-.24-.38-.22-.37-.2-.34-.2-.33-.18-.3-.17-.28-.16-.26-.14-.24-.14-.22-.12-.2-.11-.18L584,354l-.08-.13-.08-.12-.19-.3-.18-.28-.18-.27-.18-.27-.17-.25-.17-.25-.17-.24-.16-.24-.16-.22-.16-.21L582,351l-.15-.2-.15-.19-.14-.18-.14-.18-.14-.16-.14-.16-.13-.15-.13-.14-.12-.13-.12-.13-.12-.12-.12-.11-.11-.1-.12-.09-.11-.09-.11-.07-.1-.07-.11-.07-.11-.05-.1,0-.15-.05h-4.52v19.06h-8.16V320h13.78l.52,0,.52,0,.51,0,.5,0,.49.05.48.06.48.07.46.07.46.08.45.09.43.1.43.1.42.12.41.12.41.12.39.14.38.14.38.15.37.16.35.16.35.18.34.18.34.19.32.19.31.2.31.22.29.21.29.23.28.23.27.24.24.22.23.23.22.23.22.23.2.24.2.24.19.25.19.25.17.26.17.26.16.27.15.27.15.27.14.28.13.28.12.29.12.3.11.29.1.31.09.3.09.32.08.31.07.33.07.32,0,.33.05.34,0,.34,0,.35,0,.35,0,.36v1.27l0,.28,0,.27,0,.26,0,.27,0,.26,0,.26,0,.26,0,.26-.05.26-.06.25-.07.25-.07.25-.08.25-.08.25-.09.24-.09.24-.1.24-.1.24-.11.24-.11.23-.12.23-.13.23-.13.23-.13.23-.14.22-.15.23-.15.22-.15.22-.16.21-.17.22-.15.18-.14.18-.15.18-.16.17-.15.17-.16.17-.16.17-.17.16-.16.16-.17.16-.17.15-.18.16-.18.15-.18.14-.18.15-.19.14-.19.14-.19.14-.2.13-.19.13-.2.13-.21.13-.2.12-.21.12-.22.12-.21.12-.22.11-.22.11-.22.11-.23.11-.23.1-.45.19v.51l.26.15.09.06.09.07.1.08.1.08.11.1.11.11.12.12.13.14.13.14.14.15.14.17.14.17.15.18.16.2.16.2.17.22.17.22.17.24.18.25.18.25.19.27.2.28.19.29.21.29.21.31.21.32.21.33.23.34.22.35.23.36.24.37.12.19.14.21.14.23.16.24.16.27.18.28.19.3.19.32.21.33.22.36.23.37.24.39.25.41.26.42.27.45.28.46.59,1,.31.52.33.53.33.56.34.57.36.59.36.6.38.63.38.64.4.66.4.68.85,1.41.57.95h-9.3l-.35-.59-.44-.73ZM532.21,344v-1l0-.49,0-.48,0-.47-.05-.47,0-.46-.06-.45-.07-.45-.08-.45-.09-.43-.09-.43-.11-.43-.11-.42-.12-.41-.12-.4-.14-.4-.15-.4-.15-.38-.16-.39-.17-.37-.18-.37-.18-.36-.2-.36-.2-.35-.21-.34-.22-.34-.23-.33-.23-.33-.25-.31-.25-.32-.26-.3-.27-.3-.27-.29-.28-.28-.29-.27-.29-.26-.3-.25-.3-.24-.31-.23-.31-.23-.32-.21-.32-.2-.34-.2-.33-.18-.34-.18-.35-.16-.36-.16-.36-.15-.36-.14-.37-.12-.38-.12-.38-.11-.38-.1-.4-.09-.39-.08-.4-.07-.41-.06-.42-.05-.42-.05-.42,0-.43,0-.43,0h-.88l-.43,0-.43,0-.42,0-.41.05-.41.05-.41.06-.4.07-.39.08-.39.09-.39.1-.38.1-.37.12-.37.13-.36.13-.36.15-.36.15-.35.17-.34.17-.34.19-.33.19-.32.2-.33.21-.31.22-.31.24-.31.23-.3.25-.29.26-.29.27-.28.28-.28.28-.27.3-.27.3-.26.31-.24.32-.24.32-.24.33-.22.34-.21.34-.21.35-.2.36-.19.36-.18.37-.17.37-.17.39-.15.38-.15.4-.14.4-.13.41-.12.41-.11.42-.11.43-.09.43-.09.44-.08.44-.07.46-.06.45-.06.47,0,.47,0,.48,0,.48,0,.49v2l0,.5,0,.48,0,.48,0,.48.06.47.06.46.07.45.08.45.09.44.09.44.11.43.11.42.12.42.13.41.14.4.15.4.15.39.17.38.17.38.18.37.19.36.2.36.21.35.21.34.22.34.24.33.24.33.24.31.26.31.27.31.27.29.28.29.28.28.29.26.29.26.3.25.31.24.31.23.31.22.33.21.32.21.33.19.34.18.35.18.34.16.36.16.36.14.36.14.37.13.37.11.38.11.39.1.39.09.39.08.4.07.41.06.41.05.41,0,.42,0,.43,0h1.72l.43,0,.41,0,.41,0,.41-.05.4-.06.4-.07.39-.08.39-.09.38-.1.38-.11.37-.11.36-.13.37-.14.35-.14.35-.16.35-.16.34-.18.34-.18.33-.19.32-.21.32-.21.32-.22.31-.23.3-.24.3-.25.29-.26.29-.26.28-.28.28-.29.27-.29.27-.31.26-.31.24-.31.24-.33.24-.33.22-.34.21-.34.21-.35.2-.36.19-.36.18-.37.17-.38.17-.38.15-.39.15-.4.14-.4.13-.41.12-.42.11-.42.11-.43.09-.44.09-.44.08-.45.07-.45.06-.46.06-.47,0-.48,0-.48,0-.48,0-.5v-1Zm8.75-.15v.68l0,.67,0,.67,0,.65-.06.65-.07.64-.09.63-.1.62-.12.62-.12.6-.14.6-.16.59-.16.58-.18.58-.2.56-.2.56-.22.55-.24.54-.24.53-.26.52-.27.52-.29.51-.3.5-.31.49-.33.48-.34.48-.35.47-.37.46-.38.45-.39.44-.41.44-.42.43-.43.42-.44.4-.44.39-.45.38-.46.36-.47.36-.47.33-.49.33-.48.31-.5.3-.5.28-.52.27L528,366l-.53.25-.53.23-.54.22-.55.2-.56.19-.56.18-.57.17-.58.15-.59.14-.59.13-.6.11-.61.1-.62.09-.62.07-.64.06-.64.05-.64,0-.66,0H516l-.64,0-.63,0-.62,0-.62-.05-.6-.06-.6-.08-.59-.08-.59-.1-.57-.11-.57-.12-.56-.13-.55-.14-.55-.16-.54-.16-.52-.18-.53-.19-.51-.2-.51-.21-.5-.22-.49-.24-.48-.24-.48-.26-.47-.27-.46-.28-.45-.29-.45-.3-.44-.31-.43-.33-.43-.33-.41-.35-.41-.36-.46-.43-.45-.44-.43-.44-.42-.46-.41-.46-.38-.48-.38-.48-.36-.49-.34-.5-.33-.51-.32-.52-.3-.53-.28-.53-.27-.55-.26-.55-.24-.57L494,354l-.21-.58-.2-.59-.18-.6-.17-.61-.15-.62-.14-.63-.13-.64-.11-.64-.09-.66-.09-.66-.06-.68-.05-.68,0-.7,0-.7v-1.38l0-.66,0-.65.05-.64.06-.64.07-.63.09-.63.1-.61.11-.61.13-.6.14-.59.15-.59.17-.58.18-.57.19-.56.21-.56.22-.55.23-.54.25-.53.26-.53.27-.52.29-.51.3-.51.31-.5.33-.49.34-.48.35-.48.37-.47.38-.47.39-.45.41-.45.42-.44.43-.43.44-.42.44-.4.45-.39.46-.38.47-.36.48-.35.48-.34.49-.32.5-.31.5-.29.52-.28.52-.27.52-.25.54-.24.54-.22.55-.22.56-.19.57-.19.57-.17.58-.16.59-.14.6-.13.6-.12.62-.1.62-.09.62-.07.64-.07.64,0,.65,0,.66,0h1.39l.71,0,.7,0,.7.05.68.06.67.08.66.1.66.11.64.12.63.13.63.16.61.16.6.18.6.2.58.2.58.23.56.23.56.26.55.26.53.28.53.3.52.31.51.32.5.34.49.35.48.36.47.39.46.39.45.41.45.42.43.44.42.46.37.41.36.42.34.43.34.44.32.44.31.45.3.46.28.46.28.47.26.48.25.49.24.5.23.5.22.51.2.51.2.53.18.53.17.54.15.55.15.55.14.56.12.57.11.58.1.58.09.59.07.6.07.61.05.62,0,.62,0,.63,0,.63Zm-74.33,23.76h-8.17V320h8.17Zm-45.55-33.29v-.8l0-.2,0-.19,0-.19,0-.19,0-.18,0-.19,0-.18-.05-.18-.06-.18-.05-.17-.06-.18-.07-.17-.07-.17-.07-.16-.08-.17-.08-.16-.09-.16-.09-.16-.1-.15-.1-.16-.1-.15-.11-.14-.11-.15-.11-.14-.12-.14-.13-.14-.13-.14-.13-.13-.14-.13-.14-.13-.14-.12-.15-.12-.16-.12-.16-.11-.16-.1-.16-.1-.17-.1-.17-.09-.18-.09-.18-.09-.18-.08-.19-.08-.19-.07-.19-.07-.2-.06-.2-.06-.21-.05-.21-.06-.21,0-.22,0-.21,0-.23,0-.22,0-.23,0-.24,0-.23,0h-5.74v15.74h5.47l.21,0,.21,0,.21,0,.2,0,.21,0,.2,0,.2,0,.2-.05.19-.06.19-.05.2-.07.19-.06.18-.08.19-.07.18-.08.18-.09.18-.09.17-.1.18-.09.17-.11.17-.11.17-.11.16-.12.17-.12.16-.13.15-.13.16-.14.15-.14.15-.15.15-.14.15-.16.13-.15.14-.15.13-.16.12-.16.12-.16.12-.17.11-.17.11-.16.1-.17.09-.18.1-.17.08-.18.09-.18.07-.18.08-.19.07-.18.06-.19.06-.19.05-.19,0-.2.05-.19,0-.2,0-.2,0-.2,0-.2,0-.21,0-.21v-.63Zm2.52,30.55-.4-.67-.4-.66-.38-.64-.37-.61-.36-.59-.34-.58-.33-.55-.32-.53-.31-.51-.29-.49-.29-.47-.27-.44-.25-.43-.25-.41-.23-.38-.22-.37-.21-.34-.19-.33-.18-.3-.18-.28-.15-.26-.28-.46-.12-.2-.11-.18-.09-.16-.09-.13-.07-.12-.19-.3-.18-.28-.18-.27-.18-.27-.17-.25-.17-.25-.17-.24-.16-.24-.16-.22-.16-.21-.15-.21-.16-.2-.14-.19-.15-.18-.14-.18-.13-.16-.14-.16-.13-.15-.13-.14-.12-.13-.13-.13-.12-.12-.11-.11-.12-.1-.11-.09-.11-.09-.11-.07-.11-.07-.1-.07-.11-.05-.11,0-.14-.05h-4.52v19.06h-8.16V320h13.77l.53,0,.52,0,.51,0,.5,0,.49.05.48.06.47.07.47.07.46.08.44.09.44.1.43.1.42.12.41.12.4.12.4.14.38.14.38.15.36.16.36.16.35.18.34.18.33.19.32.19.32.2.3.22.3.21.29.23.28.23.27.24.24.22.23.23.22.23.21.23.21.24.2.24.19.25.18.25.18.26.17.26.16.27.15.27.15.27.14.28.13.28.12.29.12.3.11.29.1.31.09.3.09.32.08.31.07.33.06.32.06.33.05.34,0,.34,0,.35,0,.35,0,.36v1.55l0,.27,0,.26,0,.27,0,.26,0,.26,0,.26-.05.26-.06.26-.06.25-.06.25-.08.25-.07.25-.08.25-.09.24-.09.24-.1.24-.1.24-.11.24-.12.23-.12.23-.12.23-.13.23-.13.23-.14.22-.15.23-.15.22-.16.22-.16.21-.17.22-.14.18-.15.18-.15.18-.15.17-.16.17-.16.17-.16.17-.16.16-.17.16-.17.16-.17.15-.17.16-.18.15-.18.14-.19.15-.18.14-.19.14-.19.14-.2.13-.2.13-.2.13-.2.13-.21.12-.21.12-.21.12-.21.12-.22.11-.22.11-.23.11-.22.11-.23.1-.45.19v.51l.26.16.08,0,.09.07.1.08.11.08.11.1.11.11.12.12.13.14.13.14.13.15.14.17.15.17.15.18.16.2.16.2.16.22.17.22.18.24.18.25.18.25.19.27.19.28.2.29.2.29.21.31.21.32.22.33.22.34.23.35.23.36.23.37.13.19.13.21.15.23.15.24.17.27.17.28.19.3.2.32.21.33.21.36.23.37.24.39.25.41.26.42.27.45.28.46.3.48.3.5.31.52.32.53.34.56.34.57.35.59.37.6.37.63.39.64.39.66.41.68.85,1.41.56.95h-9.29l-.35-.59-.45-.73-.43-.72Zm-49.92,2.74h-26.2V320h26.06l-2.19,6.7H355.64V340h15.62v6.7H355.64v14.27h18ZM324.15,320l-1.92,6.7H309v40.9h-8.24v-40.9h-14V320Zm-57.35,47.6h-7.67l-21.78-28.14-.18-.23L237,339l-.18-.23-.17-.23-.17-.22-.17-.22-.17-.23-.16-.22-.17-.21-.16-.22-.16-.22-.15-.21-.16-.22-.15-.21-.16-.21-.15-.21-.14-.21-.15-.2-.15-.21-.14-.2-.14-.2-.14-.2-.13-.2-.14-.2-.13-.19-.13-.2-.13-.19-.13-.19-.12-.19-.13-.19-.12-.19-.32-.5-.57.42,0,.32v.39l0,.14v33.85h-8.16V320h8.49l20.93,27.06.2.27.2.26.2.25.19.26.19.24.19.25.18.24.18.24.18.24.17.23.17.23.16.22.16.23.16.21.15.22.15.21.15.21.14.2.14.2.14.2.13.2.13.19.12.18.12.19.12.18.11.17.11.18.11.17.1.16.1.16.1.16.75,1.27V320h8.09Zm-70.89,0h-8.16V320h8.16Z" transform="translate(-80.79 -156.63)" style="fill:#fff;fill-rule:evenodd"/><polygon points="340.16 137.77 48.19 137.77 48.19 146.27 340.16 146.27 632.13 146.27 632.13 137.77 340.16 137.77" style="fill:#fff;fill-rule:evenodd"/></svg>