<svg id="Layer_1" data-name="Layer 1" xmlns="http://www.w3.org/2000/svg" viewBox="0 0 594.57 140.67"><title>Brooklands-Interiors-logo-noBG-noLine</title><path d="M244.68,271.57q6.6,5.94,17.08,5.94,10.78,0,17.71-6.89t6.92-18q0-10.49-6.08-17.16Q273.5,228,261.76,228q-10.84,0-17.77,7.12t-6.93,18Q237.06,264.68,244.68,271.57Zm5.9-31.45a14.22,14.22,0,0,1,11.11-4.69,14.06,14.06,0,0,1,11.11,4.73q4.14,4.72,4.14,12.64,0,8.07-4.22,12.76a15.41,15.41,0,0,1-22.14,0q-4.22-4.69-4.21-12.76T250.58,240.12Z" transform="translate(-123.66 -228.02)" style="fill:#fff"/><polygon points="268.66 27.64 285.96 48.75 296.85 48.75 276.17 23.87 295.5 0.44 285.15 0.44 268.66 21.04 268.66 0.44 259.79 0.44 259.79 48.75 268.66 48.75 268.66 27.64" style="fill:#fff"/><path d="M316.74,271.57q6.6,5.94,17.08,5.94,10.79,0,17.7-6.89t6.93-18q0-10.49-6.08-17.16Q345.54,228,333.82,228q-10.85,0-17.77,7.12t-6.93,18Q309.12,264.68,316.74,271.57Zm5.9-31.45a14.22,14.22,0,0,1,11.11-4.69,14,14,0,0,1,11.1,4.73Q349,244.89,349,252.8q0,8.07-4.22,12.76a15.41,15.41,0,0,1-22.14,0q-4.22-4.69-4.21-12.76T322.64,240.12Z" transform="translate(-123.66 -228.02)" style="fill:#fff"/><path d="M656.51,269.88q7.26-6.67,7.26-17.66T657,235q-7.11-6.53-20-6.52H622.35v48.3h14.07Q649.11,276.77,656.51,269.88Zm-25.29-33.94h5.57q8.58,0,13.19,4.62,4.34,4.32,4.33,11.8t-4,11.88q-4.62,5.06-13.49,5.06h-5.64Z" transform="translate(-123.66 -228.02)" style="fill:#fff"/><path d="M560.33,248.33a63.44,63.44,0,0,0-.22-6.45l.1-.07q1.9,3,4.79,6.68l21.88,28.28h8.2v-48.3h-8.8v33.94a66.08,66.08,0,0,0-4.76-6.75l-21-27.19h-9v48.3h8.87Z" transform="translate(-123.66 -228.02)" style="fill:#fff"/><path d="M497.05,264.68H514.3l4.76,12.09h9.46l-19.43-48.52h-6.45l-18.76,48.52h8.72Zm7-18.45a45.13,45.13,0,0,0,1.75-5.89h.07a53.91,53.91,0,0,0,1.81,6l3.86,11.07H499.77Z" transform="translate(-123.66 -228.02)" style="fill:#fff"/><path d="M712.81,252.88c-.3-.25-3.64-2.23-10-5.94q-5.41-3.15-5.42-6.75a4.09,4.09,0,0,1,2-3.63,9,9,0,0,1,5-1.28q5.13,0,11.29,3.37l.15-7.91A24.75,24.75,0,0,0,703.86,228q-7.32,0-11.65,4a11.94,11.94,0,0,0-4.11,9.31A13.17,13.17,0,0,0,693.45,252q.3.21,10,5.86,5.34,3.15,5.35,6.82a4.78,4.78,0,0,1-2.64,4.32,10.72,10.72,0,0,1-5.35,1.25,18.88,18.88,0,0,1-10.93-3.67l-3.59,6.53a26.25,26.25,0,0,0,14.88,4.4,19.06,19.06,0,0,0,12.17-3.82,12.14,12.14,0,0,0,4.84-10A13.26,13.26,0,0,0,712.81,252.88Z" transform="translate(-123.66 -228.02)" style="fill:#fff"/><polygon points="345.78 41.27 328.48 41.27 328.48 0.44 319.61 0.44 319.61 48.75 345.78 48.75 345.78 41.27" style="fill:#fff"/><path d="M189.49,257.71h4.1c.83.25,2.25,1.93,4.25,5.06q1,1.69,8.43,14h10.12q-7.26-12.16-9.16-15.1-3.82-6-5.28-6.81v-.08a15.06,15.06,0,0,0,6.16-4.62,12.65,12.65,0,0,0,2.78-8.06,12.31,12.31,0,0,0-4-9.6q-4.4-4-13.27-4h-13v48.3h8.87ZM199.89,238a6.92,6.92,0,0,1,2.06,5.17,7.52,7.52,0,0,1-2.31,5.57A7.8,7.8,0,0,1,194,251h-4.47v-15h4.39A8.24,8.24,0,0,1,199.89,238Z" transform="translate(-123.66 -228.02)" style="fill:#fff"/><path d="M152.1,272.08a13.2,13.2,0,0,0,4-9.82A11.84,11.84,0,0,0,147,250.6v-.07q6-2.92,6-10a11,11,0,0,0-3.45-8.21q-3.89-3.81-10.48-3.81H123.66v48.3H139Q147.41,276.77,152.1,272.08Zm-8-29.91a6,6,0,0,1-1.91,4.55,6.15,6.15,0,0,1-4.39,1.83h-5.28V235.94h4.32Q144.11,235.94,144.11,242.17Zm-5.94,27.13h-5.64V256h6a10.05,10.05,0,0,1,6.27,1.73,5.49,5.49,0,0,1,2.23,4.58Q147,269.29,138.17,269.3Z" transform="translate(-123.66 -228.02)" style="fill:#fff"/><polygon points="162.7 99.04 176.7 99.04 176.7 139.94 185.64 139.94 185.64 99.04 198.84 99.04 200.96 91.64 162.7 91.64 162.7 99.04" style="fill:#fff"/><path d="M420.72,346.05V346a15,15,0,0,0,6.16-4.61,12.64,12.64,0,0,0,2.79-8.07,12.34,12.34,0,0,0-4-9.6q-4.4-4-13.27-4H399.39V368h8.87V348.91h4.11q1.25.36,4.25,5.06l8.43,14h10.12q-7.26-12.18-9.17-15.1Q422.19,346.86,420.72,346.05Zm-2.05-16.9a6.94,6.94,0,0,1,2.05,5.17,7.49,7.49,0,0,1-2.3,5.57,7.78,7.78,0,0,1-5.69,2.27h-4.47v-15h4.4A8.25,8.25,0,0,1,418.67,329.15Z" transform="translate(-123.66 -228.02)" style="fill:#fff"/><path d="M258.36,346.56v7a69.48,69.48,0,0,0-4.77-6.74l-21-27.2h-9V368h8.87V339.52c0-3-.08-5.18-.22-6.45l.09-.07c1.27,2,2.87,4.22,4.79,6.68L259,368h8.2V319.66h-8.79Z" transform="translate(-123.66 -228.02)" style="fill:#fff"/><polygon points="247.95 99.04 250.37 91.64 223.47 91.64 223.47 139.94 250.37 139.94 250.37 132.54 232.34 132.54 232.34 118.98 247.95 118.98 247.95 111.57 232.34 111.57 232.34 99.04 247.95 99.04" style="fill:#fff"/><rect x="334.45" y="91.63" width="8.87" height="48.31" style="fill:#fff"/><path d="M649.07,344.07c-.3-.25-3.64-2.22-10-5.94q-5.43-3.15-5.43-6.74a4.07,4.07,0,0,1,2-3.63,9,9,0,0,1,5-1.28,23.8,23.8,0,0,1,11.29,3.37l.15-7.92a24.75,24.75,0,0,0-11.88-2.71q-7.32,0-11.65,4a11.91,11.91,0,0,0-4.11,9.31,13.12,13.12,0,0,0,5.36,10.7q.28.22,10,5.86,5.34,3.17,5.35,6.82a4.79,4.79,0,0,1-2.64,4.33,10.72,10.72,0,0,1-5.35,1.24,18.93,18.93,0,0,1-10.92-3.66l-3.6,6.52a26.26,26.26,0,0,0,14.89,4.4,19,19,0,0,0,12.16-3.81,12.15,12.15,0,0,0,4.84-10A13.27,13.27,0,0,0,649.07,344.07Z" transform="translate(-123.66 -228.02)" style="fill:#fff"/><path d="M516.68,319.22q-10.84,0-17.78,7.11t-6.92,18q0,11.58,7.62,18.47,6.6,5.94,17.08,5.94,10.77,0,17.7-6.89t6.93-18q0-10.49-6.08-17.15Q528.41,319.21,516.68,319.22Zm11,37.53a15.41,15.41,0,0,1-22.14,0q-4.22-4.69-4.21-12.75t4.21-12.68a14.21,14.21,0,0,1,11.11-4.7,14,14,0,0,1,11.1,4.73q4.14,4.72,4.14,12.65T527.64,356.75Z" transform="translate(-123.66 -228.02)" style="fill:#fff"/><rect x="63.74" y="91.63" width="8.87" height="48.31" style="fill:#fff"/><path d="M587.64,346.05V346a15.13,15.13,0,0,0,6.16-4.61,12.69,12.69,0,0,0,2.78-8.07,12.34,12.34,0,0,0-4-9.6q-4.39-4-13.26-4H566.31V368h8.87V348.91h4.1q1.25.36,4.25,5.06,1,1.68,8.43,14h10.12q-7.26-12.18-9.16-15.1Q589.11,346.86,587.64,346.05Zm-2-16.9a7,7,0,0,1,2,5.17,7.5,7.5,0,0,1-2.31,5.57,7.76,7.76,0,0,1-5.68,2.27h-4.47v-15h4.39A8.28,8.28,0,0,1,585.59,329.15Z" transform="translate(-123.66 -228.02)" style="fill:#fff"/></svg>